<?xml version="1.0" standalone="no"?>
<!DOCTYPE svg PUBLIC "-//W3C//DTD SVG 20010904//EN"
 "http://www.w3.org/TR/2001/REC-SVG-20010904/DTD/svg10.dtd">
<svg version="1.0" xmlns="http://www.w3.org/2000/svg"
 width="1152.000000pt" height="297.000000pt" viewBox="0 0 1152.000000 297.000000"
 preserveAspectRatio="xMidYMid meet">

<g transform="translate(0.000000,297.000000) scale(0.100000,-0.100000)"
fill="#000000" stroke="none">
<path d="M4790 2670 c-163 -26 -287 -116 -353 -258 -59 -125 -48 -300 25 -415
69 -108 178 -178 458 -297 298 -126 392 -217 393 -380 1 -46 -6 -79 -21 -114
-30 -68 -133 -166 -218 -207 -61 -30 -79 -34 -165 -37 -269 -10 -474 131 -530
363 -9 38 -17 59 -18 45 -4 -130 112 -299 253 -369 307 -151 684 -12 776 286
37 121 22 282 -35 373 -66 104 -236 217 -440 290 -362 130 -490 281 -414 487
54 142 195 223 392 223 155 0 299 -71 399 -196 54 -67 81 -81 32 -17 -75 99
-182 175 -291 208 -63 19 -174 26 -243 15z"/>
<path d="M2515 2635 c60 -16 91 -50 100 -107 4 -24 5 -360 3 -748 -4 -729 -6
-758 -46 -802 -18 -22 -70 -23 -116 -4 -19 8 -86 64 -149 125 -124 118 -168
142 -223 124 -55 -18 -95 -112 -94 -221 l1 -47 19 48 c10 27 24 55 30 63 22
25 75 15 181 -35 173 -81 268 -103 349 -81 65 17 123 81 152 167 23 68 23 68
26 801 l3 732 -143 -1 c-138 0 -141 -1 -93 -14z"/>
<path d="M3221 1859 c-241 -725 -267 -795 -300 -832 -20 -22 -54 -48 -76 -58
l-40 -19 140 1 c129 0 137 1 108 14 -37 16 -73 68 -73 105 0 30 104 346 120
366 7 7 8 19 4 25 -4 7 -3 9 3 6 6 -4 21 5 34 19 38 41 95 77 239 151 244 126
304 178 333 292 l14 54 37 -109 c21 -60 96 -270 167 -466 71 -197 129 -370
129 -385 0 -14 -10 -37 -22 -50 l-21 -23 169 0 169 0 -31 19 c-18 11 -44 35
-59 55 -17 23 -119 293 -301 803 -151 422 -279 780 -285 796 -11 27 -12 27
-103 27 l-91 0 -264 -791z m388 451 c105 -296 112 -331 87 -403 -34 -93 -95
-142 -320 -259 -104 -54 -178 -99 -213 -131 -29 -27 -53 -46 -53 -43 0 7 356
1085 373 1130 9 25 11 26 17 10 4 -11 53 -147 109 -304z"/>
<path d="M5610 1871 c0 -528 -3 -789 -11 -808 -15 -40 -48 -73 -94 -94 l-40
-19 150 1 c89 0 139 4 124 9 -41 12 -77 39 -99 75 -20 32 -20 45 -18 774 l3
742 327 -598 327 -599 -41 -83 c-34 -68 -42 -95 -45 -154 -4 -59 -1 -78 15
-103 66 -104 265 -73 311 49 27 71 -4 193 -90 352 l-50 93 272 494 c149 271
282 511 295 533 l24 40 0 -743 c0 -613 -2 -748 -14 -776 -15 -36 -64 -77 -111
-94 -22 -8 30 -10 210 -10 132 0 229 3 215 7 -14 5 -40 15 -57 25 -66 34 -63
-7 -63 871 l0 796 -81 -3 -81 -3 -100 -185 c-162 -299 -412 -758 -466 -854
l-50 -88 -44 78 c-24 44 -163 298 -308 567 l-264 487 -73 0 -73 0 0 -779z
m742 -649 c47 -96 53 -157 21 -200 -31 -41 -66 -58 -99 -47 -81 29 -93 136
-30 279 46 103 42 104 108 -32z"/>
<path d="M7410 2627 c24 -12 53 -35 64 -51 21 -27 21 -36 24 -764 3 -845 9
-784 -88 -834 l-52 -28 233 1 c190 0 228 3 204 12 -56 22 -75 38 -95 77 -20
39 -20 54 -18 772 l3 733 22 31 c13 18 42 41 65 53 l43 21 -224 0 -224 0 43
-23z"/>
<path d="M8020 1851 l0 -799 -27 -33 c-15 -17 -45 -40 -68 -50 l-40 -19 145 0
145 0 -40 19 c-55 24 -92 71 -100 124 -3 23 -5 318 -3 655 l3 612 515 -704
c332 -454 521 -705 533 -705 16 -1 17 43 17 793 l0 793 23 34 c12 18 40 44 62
56 l40 23 -130 -1 -130 0 37 -19 c45 -24 76 -62 83 -104 3 -17 4 -311 3 -653
l-3 -622 -515 699 c-335 455 -521 699 -532 700 -17 0 -18 -45 -18 -799z"/>
<path d="M2520 451 c0 -145 2 -171 15 -171 12 0 15 15 15 75 l0 75 65 0 c114
0 178 45 159 112 -15 50 -61 71 -166 76 l-88 4 0 -171z m205 105 c51 -51 -3
-96 -115 -96 l-60 0 0 60 0 60 75 0 c67 0 79 -3 100 -24z"/>
<path d="M3107 613 c-4 -3 -7 -80 -7 -170 0 -156 1 -163 20 -163 18 0 20 7 20
75 l0 75 90 0 90 0 0 -75 c0 -60 3 -75 15 -75 13 0 15 26 15 170 0 142 -2 170
-15 170 -11 0 -15 -18 -17 -77 l-3 -78 -87 -3 -88 -3 0 81 c0 60 -3 80 -13 80
-8 0 -17 -3 -20 -7z"/>
<path d="M3784 610 c-18 -6 -46 -26 -63 -45 -75 -86 -57 -214 39 -267 45 -24
129 -20 168 8 35 26 72 99 72 144 0 48 -38 121 -75 142 -39 22 -101 30 -141
18z m141 -60 c76 -71 38 -217 -61 -236 -46 -8 -78 1 -115 34 -59 53 -50 173
15 214 43 27 126 21 161 -12z"/>
<path d="M4270 600 c0 -18 7 -20 55 -20 l55 0 0 -150 c0 -127 2 -150 15 -150
13 0 15 23 15 150 l0 150 60 0 c53 0 60 2 60 20 0 19 -7 20 -130 20 -123 0
-130 -1 -130 -20z"/>
<path d="M4915 605 c-62 -22 -105 -89 -105 -165 0 -36 40 -110 72 -134 39 -28
123 -32 168 -8 101 56 116 198 29 277 -22 19 -45 35 -53 35 -7 0 -26 2 -42 5
-16 3 -47 -2 -69 -10z m125 -40 c39 -20 60 -63 60 -123 0 -155 -211 -179 -251
-28 -14 53 11 120 55 147 37 23 96 25 136 4z"/>
<path d="M5567 606 c-50 -18 -67 -34 -88 -81 -25 -54 -24 -102 4 -155 27 -54
61 -80 115 -87 91 -12 170 47 186 140 l7 37 -86 0 c-69 0 -85 -3 -85 -15 0
-12 14 -15 66 -15 l66 0 -7 -27 c-22 -89 -139 -121 -206 -57 -60 58 -59 157 3
209 31 27 65 30 153 14 35 -7 22 25 -15 38 -45 15 -67 15 -113 -1z"/>
<path d="M6110 450 c0 -144 2 -170 15 -170 12 0 15 15 15 75 l0 75 49 0 c48 0
50 -1 116 -75 59 -66 85 -83 85 -55 0 5 -22 33 -50 63 -51 56 -61 77 -36 77
28 0 66 48 66 83 0 65 -62 97 -187 97 l-73 0 0 -170z m208 114 c16 -11 22 -24
20 -42 -4 -38 -56 -62 -135 -62 l-63 0 0 60 0 60 78 0 c55 0 84 -5 100 -16z"/>
<path d="M6855 609 c-4 -5 -35 -78 -70 -162 -44 -104 -60 -154 -52 -159 16
-10 20 -5 42 51 l19 51 77 0 77 0 23 -55 c23 -55 32 -64 44 -45 9 15 -125 330
-141 330 -7 0 -16 -5 -19 -11z m69 -166 c7 -22 5 -23 -53 -23 -34 0 -61 2 -61
4 0 2 14 35 31 73 l32 68 22 -50 c12 -27 25 -60 29 -72z"/>
<path d="M7350 450 c0 -144 2 -170 15 -170 12 0 15 15 15 75 l0 75 59 0 c32 0
72 3 90 6 39 8 81 50 81 81 0 66 -64 102 -182 103 l-78 0 0 -170z m194 118
c50 -22 42 -77 -15 -97 -18 -6 -58 -11 -90 -11 l-59 0 0 60 0 60 70 0 c38 0
80 -5 94 -12z"/>
<path d="M7940 450 c0 -144 2 -170 15 -170 12 0 15 15 15 75 l0 75 90 0 90 0
0 -75 c0 -60 3 -75 15 -75 13 0 15 26 15 170 0 144 -2 170 -15 170 -12 0 -15
-16 -15 -80 l0 -80 -90 0 -90 0 0 80 c0 64 -3 80 -15 80 -13 0 -15 -26 -15
-170z"/>
<path d="M8715 534 l-61 -83 -57 79 c-32 44 -62 80 -67 80 -24 0 -14 -25 45
-106 65 -88 65 -89 65 -156 0 -54 3 -68 15 -68 12 0 15 14 15 69 0 69 0 70 58
148 75 101 74 99 59 111 -9 7 -28 -12 -72 -74z"/>
</g>
</svg>
